<?xml version="1.0" standalone="no"?>
<!DOCTYPE svg PUBLIC "-//W3C//DTD SVG 20010904//EN"
 "http://www.w3.org/TR/2001/REC-SVG-20010904/DTD/svg10.dtd">
<svg version="1.0" xmlns="http://www.w3.org/2000/svg"
 width="700.000000pt" height="700.000000pt" viewBox="0 0 700.000000 700.000000"
 preserveAspectRatio="xMidYMid meet">
<metadata>
Created by potrace 1.11, written by Peter Selinger 2001-2013
</metadata>
<g transform="translate(0.000000,700.000000) scale(0.100000,-0.100000)"
fill="#000000" stroke="none">
<path d="M3180 6969 c-329 -31 -722 -130 -1025 -259 -423 -180 -771 -415
-1101 -745 -559 -557 -896 -1243 -1000 -2040 -22 -165 -25 -629 -6 -785 57
-455 165 -821 358 -1201 434 -858 1206 -1499 2129 -1769 315 -92 620 -134 970
-134 267 0 430 16 680 64 658 129 1278 459 1760 936 795 788 1162 1893 995
2997 -239 1577 -1537 2794 -3130 2937 -135 12 -494 11 -630 -1z m528 -779
c851 -58 1598 -490 2070 -1195 218 -326 361 -699 423 -1108 26 -169 32 -527
11 -692 -131 -1027 -808 -1876 -1772 -2222 -308 -110 -633 -160 -980 -150
-531 16 -997 167 -1435 465 -160 109 -243 179 -395 331 -614 616 -886 1485
-739 2354 43 250 115 470 239 722 419 857 1264 1426 2220 1495 155 11 200 11
358 0z"/>
<path d="M2825 5945 l-25 -24 0 -836 0 -835 -835 0 -836 0 -24 -24 c-13 -13
-26 -39 -30 -57 -3 -19 -5 -330 -3 -691 l3 -656 24 -26 24 -26 839 0 838 0 0
-839 0 -839 31 -26 31 -26 685 2 685 3 24 28 24 28 0 835 0 834 838 0 839 0
21 23 22 23 0 693 0 692 -25 24 -24 25 -836 0 -835 0 0 835 0 836 -25 24 -24
25 -691 0 -691 0 -24 -25z m871 -268 c104 -77 194 -200 215 -293 23 -104 -10
-214 -117 -390 -135 -220 -138 -236 -130 -689 5 -316 8 -565 7 -652 l-1 -33
-135 0 -135 0 0 508 c0 420 -3 517 -15 558 -16 55 -86 168 -179 289 -101 133
-125 233 -95 401 23 132 76 240 108 220 14 -9 28 -63 47 -175 8 -52 19 -102
24 -112 13 -23 86 -58 140 -65 37 -5 54 -1 100 23 57 30 130 112 130 146 0 10
-13 72 -30 137 -16 65 -30 130 -30 144 0 38 28 33 96 -17z m-1011 -1885 c136
-69 337 -67 396 4 8 9 33 14 76 14 l64 0 24 -52 c17 -37 25 -71 25 -110 l0
-58 1038 0 c838 0 1062 3 1166 15 71 8 132 13 135 11 3 -2 44 -7 91 -10 155
-12 147 -8 148 -80 l1 -63 -62 -6 c-181 -18 -223 -19 -379 -3 -143 15 -286 17
-1148 14 l-985 -3 -5 -65 c-4 -39 -15 -84 -30 -112 l-24 -48 -61 0 c-52 0 -65
4 -85 25 -33 35 -83 48 -173 47 -92 -2 -145 -14 -206 -48 l-44 -24 -618 0
-619 0 -40 36 c-57 52 -83 125 -84 244 -1 107 11 158 52 219 56 83 7 78 690
78 l607 0 50 -25z m996 -637 c4 -154 10 -505 13 -780 4 -282 12 -517 18 -540
5 -22 35 -94 66 -160 56 -118 57 -122 57 -210 0 -80 -3 -95 -27 -137 -98 -165
-329 -199 -454 -66 -59 61 -69 93 -69 203 1 98 2 102 55 230 l55 130 3 808 2
808 138 -3 137 -3 6 -280z"/>
<path d="M3527 1650 c-18 -14 -34 -18 -55 -14 -25 5 -30 3 -36 -20 -3 -15 -19
-32 -37 -41 -26 -14 -29 -20 -24 -44 4 -19 1 -32 -10 -41 -19 -16 -20 -54 0
-70 9 -8 12 -22 8 -41 -5 -26 -2 -31 24 -41 18 -7 34 -23 41 -41 10 -25 15
-28 37 -23 18 5 35 1 53 -13 27 -19 28 -19 51 0 17 14 33 18 52 14 23 -5 30
-2 43 22 8 16 27 35 41 41 23 11 26 17 22 42 -4 20 -1 36 12 52 18 22 18 23 0
47 -14 17 -18 33 -14 52 5 23 2 30 -22 43 -16 8 -35 27 -41 41 -11 23 -17 26
-42 22 -20 -4 -36 0 -53 13 -24 19 -25 19 -50 0z"/>
</g>
</svg>
